<?xml version="1.0" standalone="no"?>
<!DOCTYPE svg PUBLIC "-//W3C//DTD SVG 20010904//EN"
 "http://www.w3.org/TR/2001/REC-SVG-20010904/DTD/svg10.dtd">
<svg version="1.0" xmlns="http://www.w3.org/2000/svg"
 width="700.000000pt" height="700.000000pt" viewBox="0 0 700.000000 700.000000"
 preserveAspectRatio="xMidYMid meet">
<metadata>
Created by potrace 1.11, written by Peter Selinger 2001-2013
</metadata>
<g transform="translate(0.000000,700.000000) scale(0.100000,-0.100000)"
fill="#000000" stroke="none">
<path d="M3666 5755 c-82 -23 -174 -74 -230 -128 -67 -66 -262 -327 -363 -488
-263 -415 -458 -859 -573 -1302 -16 -62 -31 -105 -34 -97 -11 30 -56 293 -71
413 -36 300 -40 540 -13 907 10 146 10 160 -10 238 -60 236 -250 396 -492 417
-251 22 -503 -162 -565 -413 -19 -78 -34 -260 -41 -509 -23 -737 140 -1574
438 -2263 260 -598 705 -1263 1086 -1621 141 -133 253 -182 412 -182 98 0 212
33 292 84 112 72 210 212 238 340 18 81 8 230 -19 304 -12 33 -24 68 -26 77
-2 10 -26 87 -54 170 -76 233 -115 400 -152 648 -27 179 -37 574 -19 773 17
193 19 196 60 103 90 -207 268 -495 442 -713 177 -223 475 -506 599 -569 60
-30 158 -54 225 -54 68 0 197 34 253 67 112 65 204 182 247 313 25 77 23 214
-4 300 -24 76 -55 226 -74 355 -16 117 -16 483 1 605 63 464 255 897 545 1235
126 148 176 255 176 382 0 324 -306 565 -615 484 -142 -38 -220 -101 -402
-330 -254 -319 -473 -720 -584 -1069 -13 -42 -26 -67 -30 -60 -13 24 -40 222
-50 361 -10 162 2 373 31 535 46 250 9 402 -130 542 -37 37 -92 80 -127 98
-109 57 -259 76 -367 47z m-25 -4142 c13 -16 12 -17 -3 -4 -17 13 -22 21 -14
21 2 0 10 -8 17 -17z"/>
</g>
</svg>
